HIERARCHY
ROOT Hips
{
    OFFSET 0.000000 0.000000 0.000000
    CHANNELS 6 Xposition Yposition Zposition Zrotation Xrotation Yrotation
    JOINT Spine
    {
        OFFSET -0.000000 7.856138 0.000000
        CHANNELS 3 Zrotation Xrotation Yrotation
        JOINT Spine1
        {
            OFFSET -0.000000 20.830866 0.000000
            CHANNELS 3 Zrotation Xrotation Yrotation
            JOINT Neck
            {
                OFFSET -0.000000 20.745317 1.885938
                CHANNELS 3 Zrotation Xrotation Yrotation
                JOINT Head
                {
                    OFFSET -0.000000 13.412918 -1.916131
                    CHANNELS 3 Zrotation Xrotation Yrotation
                    End Site
                    {
                        OFFSET -0.000000 23.951641 0.000000
                    }
                }
            }
            JOINT LeftShoulder
            {
                OFFSET 3.826675 19.078362 -0.073511
                CHANNELS 3 Zrotation Xrotation Yrotation
                JOINT LeftArm
                {
                    OFFSET 10.442133 0.000000 0.000000
                    CHANNELS 3 Zrotation Xrotation Yrotation
                    JOINT LeftForeArm
                    {
                        OFFSET 37.051945 0.000000 0.000000
                        CHANNELS 3 Zrotation Xrotation Yrotation
                        JOINT LeftHand
                        {
                            OFFSET 24.394852 0.000000 0.000000
                            CHANNELS 3 Zrotation Xrotation Yrotation
                            End Site
                            {
                                OFFSET 14.370985 0.000000 0.000000
                            }
                        }
                    }
                }
            }
            JOINT RightShoulder
            {
                OFFSET -3.827599 19.078362 -0.073511
                CHANNELS 3 Zrotation Xrotation Yrotation
                JOINT RightArm
                {
                    OFFSET -10.442133 0.000000 0.000000
                    CHANNELS 3 Zrotation Xrotation Yrotation
                    JOINT RightForeArm
                    {
                        OFFSET -37.051945 0.000000 0.000000
                        CHANNELS 3 Zrotation Xrotation Yrotation
                        JOINT RightHand
                        {
                            OFFSET -24.394852 0.000000 0.000000
                            CHANNELS 3 Zrotation Xrotation Yrotation
                            End Site
                            {
                                OFFSET -14.370985 0.000000 0.000000
                            }
                        }
                    }
                }
            }
        }
    }
    JOINT LeftUpLeg
    {
        OFFSET 9.580656 0.000000 0.000000
        CHANNELS 3 Zrotation Xrotation Yrotation
        JOINT LeftLeg
        {
            OFFSET -0.000000 -43.769192 0.000000
            CHANNELS 3 Zrotation Xrotation Yrotation
            JOINT LeftFoot
            {
                OFFSET -0.000000 -42.531967 0.000000
                CHANNELS 3 Zrotation Xrotation Yrotation
                JOINT LeftToeBase
                {
                    OFFSET -0.000000 -6.227426 14.370985
                    CHANNELS 3 Zrotation Xrotation Yrotation
                    End Site
                    {
                        OFFSET -0.000000 0.000000 3.832262
                    }
                }
            }
        }
    }
    JOINT RightUpLeg
    {
        OFFSET -9.580656 0.000000 0.000000
        CHANNELS 3 Zrotation Xrotation Yrotation
        JOINT RightLeg
        {
            OFFSET -0.000000 -43.769192 0.000000
            CHANNELS 3 Zrotation Xrotation Yrotation
            JOINT RightFoot
            {
                OFFSET -0.000000 -42.531967 0.000000
                CHANNELS 3 Zrotation Xrotation Yrotation
                JOINT RightToeBase
                {
                    OFFSET -0.000000 -6.227426 14.370985
                    CHANNELS 3 Zrotation Xrotation Yrotation
                    End Site
                    {
                        OFFSET -0.000000 0.000000 3.832262
                    }
                }
            }
        }
    }
}
MOTION
Frames:    6
Frame Time:    0.008333
-59.333683    94.035599    33.330959    -2.434941    -2.461481    87.588951    1.939780    -8.006225    0.618003    0.821678    1.599584    0.470820    1.511167    5.798664    -3.717106    6.326626    4.638309    -3.365861    13.653315    -1.335448    3.892076    -13.004756    2.752736    -15.066999    5.503625    -6.968201    0.075017    2.560339    -6.816823    6.976312    -14.560705    -0.192818    3.580006    17.446390    -0.252754    3.582697    -4.539290    -4.515542    1.860765    -5.688057    -4.395954    -0.930080    5.081203    7.061155    5.654904    -2.450897    -5.988693    9.374571    -2.320730    -3.123169    5.605772    0.000000    0.000000    0.000000    -0.121954    2.998507    -6.570556    2.444321    -2.270347    -11.767094    7.637582    0.606483    9.310371    0.000000    0.000000    0.000000    
-59.341972    94.039688    33.357174    -2.412469    -2.467767    87.647552    1.888536    -7.972602    0.607427    0.860758    1.558703    0.464205    1.536609    5.782737    -3.742574    6.313234    4.671658    -3.398311    13.668775    -1.320405    3.866808    -13.009414    2.703286    -15.077326    5.490749    -6.963284    0.109970    2.423958    -6.820813    7.024062    -14.550261    -0.170138    3.539348    17.410751    -0.291530    3.592168    -4.571288    -4.411069    1.859016    -5.449413    -4.301171    -0.756921    5.109192    7.074428    5.650566    -2.452907    -6.000359    9.346947    -2.348375    -3.102232    5.587567    0.000000    0.000000    0.000000    -0.117249    3.028985    -6.584869    2.444789    -2.267658    -11.755898    7.740769    0.620219    9.348982    0.000000    0.000000    0.000000    
-59.355145    94.042854    33.378239    -2.395191    -2.456964    87.704498    1.828159    -7.932415    0.599273    0.889886    1.506793    0.460979    1.583139    5.732820    -3.765629    6.280150    4.749490    -3.435214    13.685820    -1.197213    3.901036    -13.025924    2.537526    -15.195086    5.484186    -6.926075    0.171190    2.327668    -6.791464    7.068958    -14.539485    -0.163610    3.493487    17.384747    -0.276992    3.612995    -4.510004    -4.517668    1.890156    -5.824200    -4.395909    -0.937660    5.113808    7.078270    5.630613    -2.443826    -6.009018    9.350688    -2.455769    -3.071948    5.553771    0.000000    0.000000    0.000000    -0.132697    3.048611    -6.589685    2.440580    -2.275859    -11.749469    7.876670    0.660384    9.397792    0.000000    0.000000    0.000000    
-59.368450    94.042351    33.403839    -2.379412    -2.458374    87.767258    1.801315    -7.897464    0.579241    0.876711    1.455353    0.443856    1.646377    5.743577    -3.776339    6.233848    4.770149    -3.458201    13.723548    -1.186958    3.886689    -13.030064    2.509037    -15.196917    5.469499    -6.923602    0.187270    2.254075    -6.793208    7.121435    -14.511903    -0.147969    3.483665    17.365499    -0.272016    3.617814    -4.509044    -4.530630    1.915424    -5.925535    -4.408735    -0.905552    5.138404    7.070098    5.619767    -2.447803    -6.002633    9.305945    -2.479917    -3.076084    5.560994    0.000000    0.000000    0.000000    -0.127602    3.061862    -6.643764    2.435302    -2.263629    -11.703641    7.960831    0.650072    9.407221    0.000000    0.000000    0.000000    
-59.382057    94.043427    33.427532    -2.349823    -2.454888    87.834206    1.787040    -7.800933    0.527633    0.845305    1.304067    0.396216    1.671324    5.811936    -3.757120    6.235073    4.790030    -3.440521    13.730673    -1.136465    3.913202    -12.995097    2.543282    -15.178636    5.447670    -6.920687    0.208425    2.151614    -6.798847    7.054602    -14.480968    -0.153241    3.575662    17.341953    -0.299030    3.580350    -4.456952    -4.532237    1.950009    -6.051397    -4.404014    -0.997390    5.159219    7.073826    5.588091    -2.452307    -5.991043    9.263389    -2.518132    -3.070318    5.567313    0.000000    0.000000    0.000000    -0.130255    3.099163    -6.627176    2.443173    -2.279128    -11.745239    7.986288    0.650630    9.437113    0.000000    0.000000    0.000000    
-59.402306    94.043037    33.446472    -2.339911    -2.460362    87.868149    1.782128    -7.735395    0.518855    0.834648    1.191162    0.389669    1.654381    5.836415    -3.769241    6.300436    4.827970    -3.446604    13.718044    -1.162846    3.876938    -12.962840    2.581551    -15.133184    5.452129    -6.890162    0.208841    2.028327    -6.774528    7.131757    -14.462457    -0.129001    3.589339    17.318449    -0.292241    3.572583    -4.478329    -4.528547    1.960063    -5.972389    -4.402803    -0.948474    5.175606    7.056549    5.579461    -2.448364    -5.976870    9.221006    -2.497669    -3.080939    5.603285    0.000000    0.000000    0.000000    -0.122943    3.092843    -6.635128    2.444216    -2.256340    -11.751436    8.024305    0.640224    9.480472    0.000000    0.000000    0.000000    
